{"title":"Cocoon The Return-[1988][DvDrip]-Demonuk[NIKONRG]","uid":4347962,"size":734006408,"categoryP":"video","categoryS":"movies","magnet":"?xt=urn:btih:cbc5e33a1ce5b415f95640e0879eb86d778002c5&amp;dn=Cocoon+The+Return-%5B1988%5D%5BDvDrip%5D-Demonuk%5BNIKONRG%5D&amp;tr=udp%3A%2F%2Ftracker.openbittorrent.com%3A80&amp;tr=udp%3A%2F%2Fopen.demonii.com%3A1337&amp;tr=udp%3A%2F%2Ftracker.coppersurfer.tk%3A6969&amp;tr=udp%3A%2F%2Fexodus.desync.com%3A6969","seeders":1,"leechers":0,"uploader":"demonuk","files":3,"time":1218989126,"description":"Cocoon: The Return-[1988][DvDrip]-Demonuk[NIKONRG]\n__________________\nMOVIE INFORMATION\n__________________\nTITLE.............:Cocoon: The Return\nDIRECTOR..........:Daniel Petrie\nYEAR..............: 1988\nRUNTIME...........:1h 50mn\nGENRE.............: Comedy | Drama | Sci-Fi\nFORMAT.............:AVI\nFormat/Info.........:Audio Video Interleave\nFile size..........:700 MiB\nDuration..........:1h 33mn\nOveral bit rate....871 Kbps\nSOURCE............:PAL DVD\nSIZE..............:700mb\nIMDB..............: http://www.imdb.com/title/tt0094890/\nUSER RATING............: 4.7/10 (4,067 votes)\n__________________\nVIDEO INFORMATION\n__________________\nFormat: MPEG-4 Visual\nFormat profile: Streaming Video@L1\nFormat settings, BVOP: Yes\nFormat settings, QPel: No\nFormat settings, GMC: No warppoints\nFormat settings, Matrix: Custom\nCodec ID: XVID\nCodec ID/Hint: XviD\nDuration: 1h 50mn\nBit rate: 757 Kbps\nWidth: 576 pixels\nHeight: 320 pixels\nDisplay aspect ratio: 16/9\nFrame rate: 25.000 fps\nResolution: 8 bits\nColorimetry: 4:2:0\nScan type: Progressive\nBits/(Pixel*Frame):0.164\nStream size: 599 MiB (86%)\n\n__________________\nAUDIO INFORMATION\n__________________\nFormat: MPEG Audio\nFormat version: Version 1\nFormat profile: Layer 3\nCodec ID: 55\nCodec ID/Hint: MP3\nDuration: 1h 50mn\nBit rate mode: Constant\nBit rate: 32.0 Kbps\nMinimum bit rate: 128 Kbps\nChannel(s): 2 channels\nSampling rate: 48.0 KHz\nResolution: 16 bits\nStream size: 91.3 MiB (13%)\nWriting library: LAME3.97 \nEncoding settings: ABR\n\n__________________\nMAIN CAST\n__________________\nDon Ameche\t... Arthur Selwyn\nWilford Brimley\t... Benjamin Luckett\nHume Cronyn\t... Joseph Finley\nCourteney Cox\t ... Sara\nJack Gilford\t... Bernard Lefkowitz\nSteve Guttenberg\t... Jack Bonner\nMaureen Stapleton\t... Marilyn Luckett\n\n\n__________________\nPLOT OUTLINE\n__________________\nThe old age pensioners that left at the end of the first film come back to earth to visit their relatives.\nWill they all decide to go back to the planet where no-one grows old, or will they be tempted to stay\nback on earth\n__________________\nInfo hash:CBC5E33A1CE5B415F95640E0879EB86D778002C5\nTracker announce:\nTracker announce: http://open.tracker.thepiratebay.se:80/announce\nTracker Scrape:\n\n__________________\nContents of download:\n\nCocoon: The Return-[1988][DvDrip]-Demonuk[NIKONRG].avi (700MB)\nCocoon: The Return.info.txt (1.08Kb)\nTorrent downloaded from(47bytes)\n___________________________________________________________________\nFor Detailed Information on New Releases and Popular Request\n\n     &lt;a href=&quot; http://www.nikonxp.com&quot; rel=&quot;nofollow&quot; target=&quot;_NEW&quot;&gt; http://www.nikonxp.com&lt;/a&gt;","torrent":{"xt":"urn:btih:cbc5e33a1ce5b415f95640e0879eb86d778002c5","amp;dn":"Cocoon+The+Return-%5B1988%5D%5BDvDrip%5D-Demonuk%5BNIKONRG%5D","amp;tr":["udp%3A%2F%2Ftracker.openbittorrent.com%3A80","udp%3A%2F%2Fopen.demonii.com%3A1337","udp%3A%2F%2Ftracker.coppersurfer.tk%3A6969","udp%3A%2F%2Fexodus.desync.com%3A6969"],"infoHash":"cbc5e33a1ce5b415f95640e0879eb86d778002c5","infoHashBuffer":{"type":"Buffer","data":[203,197,227,58,28,229,180,21,249,86,64,224,135,158,184,109,119,128,2,197]},"announce":[],"urlList":[]}}